#N canvas 0 0 2556 1357 10;
#X floatatom 438 282 10 0 0 0 - - -;
#X obj -126 23 noise~;
#X obj 72 270 *~;
#N canvas 548 22 476 430 delay 0;
#X obj -20 118 z~;
#X obj 17 116 z~ 2;
#X obj 2 151 +~;
#X obj 2 177 *~ 0.5;
#X obj 3 211 *~ 0.99;
#X obj 1 86 vd~ buff2;
#X obj -394 347 delwrite~ buff2 1000;
#X obj -393 269 inlet~;
#X obj 1 35 inlet~;
#X obj 1 353 outlet~;
#X obj -325 129 block~ 1;
#X obj -394 306 +~;
#X text -338 157 reducing block size to 1 allows for shorter delays
;
#X connect 0 0 2 0;
#X connect 1 0 2 1;
#X connect 2 0 3 0;
#X connect 3 0 4 0;
#X connect 4 0 9 0;
#X connect 4 0 11 1;
#X connect 5 0 0 0;
#X connect 5 0 1 0;
#X connect 7 0 11 0;
#X connect 8 0 5 0;
#X connect 11 0 6 0;
#X restore 72 409 pd delay;
#X text 148 405 delay loop is in a subpatch to get shorter than 64
samples;
#X obj 213 479 hsl 128 15 0 20 0 1 empty empty empty -2 -8 0 10 -262144
-1 -1 4700 1;
#X obj 210 523 pack 0 20;
#X obj 210 547 line~;
#X obj 114 551 *~;
#X obj 539 723 dac~;
#X floatatom 267 509 5 0 0 0 - - -;
#X obj 104 450 lop~ 100 0;
#X obj 122 478 lop~ 100 0;
#X obj 173 261 line~;
#X msg 115 217 1;
#X obj -188 320 bng 15 250 50 0 empty empty empty 17 7 0 10 -262144
-1 -1;
#X msg -295 297 stop;
#X msg -245 290 start;
#X obj -253 170 openpanel;
#X obj -253 151 bng 15 250 50 0 empty empty empty 17 7 0 10 -262144
-1 -1;
#X obj -254 319 readsf~ 1;
#X obj -104 166 bng 15 250 50 0 empty empty empty 17 7 0 10 -262144
-1 -1;
#X msg -253 216 set open D:/SAMPLES/cracks_crumbles/alloro_clickpops/loop01.wav
;
#X msg -253 193 set set open \$1;
#X obj -145 140 t b b;
#X msg -253 244 open D:/SAMPLES/cracks_crumbles/alloro_clickpops/loop01.wav
;
#X obj -167 320 t b b;
#X obj -122 275 bng 15 250 50 0 empty empty empty 17 7 0 10 -262144
-1 -1;
#X obj -127 296 t b b;
#X obj -300 260 r bstop;
#X obj -264 584 dac~;
#X obj -173 435 *~ 1;
#X obj -165 373 hsl 128 15 0 20 0 1 empty empty empty -2 -8 0 10 -262144
-1 -1 5200 1;
#X obj -101 478 bp~;
#X floatatom -94 431 5 0 0 0 - - -;
#X floatatom -37 445 5 0 0 0 - - -;
#X obj 665 51 tgl 15 0 empty empty empty 17 7 0 10 -262144 -1 -1 1
1;
#X msg 665 70 \; pd dsp \$1;
#X obj 665 23 loadbang;
#X obj 686 50 s lb;
#X obj 732 35 bng 15 250 50 0 empty empty empty 17 7 0 10 -262144 -1
-1;
#X obj -64 271 r lb;
#X obj -19 383 r lb;
#X msg -56 412 1453;
#X msg 22 410 13;
#X obj 539 692 reverbch~;
#X obj 340 620 bp~;
#X floatatom 347 573 5 0 0 0 - - -;
#X floatatom 404 595 5 0 0 0 - - -;
#X obj 384 516 r lb;
#X msg 347 545 800;
#X obj 131 675 dac~;
#X obj -134 587 *~ 1;
#X obj -116 551 hsl 128 15 0 20 0 1 empty empty empty -2 -8 0 10 -262144
-1 -1 0 1;
#X obj -36 709 bp~;
#X floatatom -29 662 5 0 0 0 - - -;
#X floatatom 28 676 5 0 0 0 - - -;
#X obj 46 614 r lb;
#X msg 87 641 13;
#X msg 9 643 800;
#X obj 0 771 tanh~;
#X obj 6 812 *~ 1;
#X obj 67 781 hsl 128 15 0 3 0 1 empty empty empty -2 -8 0 10 -262144
-1 -1 0 1;
#X obj -191 731 delwrite~ a;
#X obj -183 682 delread~ a;
#X obj 309 106 t b b f;
#X obj 253 20 bang~;
#X obj 302 56 f;
#X floatatom 317 24 5 0 0 0 - - -;
#X text 357 22 FREQ;
#X text 484 262 freq to ms;
#X obj 438 239 inv;
#X obj 438 261 * 1000;
#X msg 320 -2 220;
#X obj 357 -31 r lb;
#X msg 422 -13 -3;
#X obj 427 67 hsl 200 15 50 600 0 0 empty empty empty -2 -8 0 10 -262144
-1 -1 8600 1;
#X obj 795 288 change;
#X obj 793 309 t f f;
#X obj 793 331 mod 12;
#X obj 810 376 f;
#X obj 793 355 list-sieve;
#X obj 791 377 bng 15 250 50 0 empty empty empty 17 7 0 10 -262144
-1 -1;
#X obj 789 396 makenote 64 125 125;
#X obj 850 330 r scale;
#X msg 1262 296 0 2 5 7 9 pentatonic;
#X msg 1329 427 0 3 5 6 7 10 blues;
#X msg 1270 318 0 2 4 6 8 10 wholetone;
#X obj 1236 395 s scale;
#X msg 1275 337 0 2 4 5 7 9 11 major;
#X msg 1302 357 0 2 3 5 7 9 10 dorian;
#X msg 1293 505 4 8 9 10 TwilightZone;
#X obj 1333 263 r lb;
#X msg 1303 383 0 2 4 6 7 9 11 lydian;
#X msg 1316 403 0 2 3 5 7 8 10 aeolian;
#X msg 1309 453 0 1 3 5 6 8 10 locrian;
#X msg 1306 478 1 3 6 8 0 jap;
#X obj 516 152 hsl 200 15 0.01 2 0 0 empty empty empty -2 -8 0 10 -262144
-1 -1 0 1;
#X obj 482 -50 hsl 200 15 -5 0 0 0 empty empty empty -2 -8 0 10 -262144
-1 -1 0 1;
#X text 545 -75 -5 / 0;
#X text 584 131 0.01 / 2;
#X msg 457 18 0;
#X obj 798 241 hsl 200 15 50 600 0 0 empty empty empty -2 -8 0 10 -262144
-1 -1 19900 1;
#X text 875 223 50 / 600;
#X obj 795 266 ftom;
#X obj 789 415 ntof 432 12;
#X obj 419 633 *~ 1.5;
#X msg 404 560 40;
#X text -73 535 dry vol;
#X text 114 757 fb;
#X text -93 353 exc vol;
#X text 262 456 vol;
#X obj 342 954 bp~;
#X floatatom 349 907 5 0 0 0 - - -;
#X floatatom 406 921 5 0 0 0 - - -;
#X obj 424 859 r lb;
#X obj 342 1010 *~ 1;
#X obj 398 985 hsl 128 15 0 0.5 0 1 empty empty empty -2 -8 0 10 -262144
-1 -1 12100 1;
#X obj 343 1147 delwrite~ b;
#X obj 108 350 delread~ b;
#X msg 465 886 24;
#X msg 388 877 500;
#X text 453 964 ks fb;
#X obj 342 1038 tanh~;
#X floatatom 788 457 5 0 0 0 - - -;
#X obj 115 193 r lb;
#X obj 173 212 delay 100;
#X msg 173 235 0 100;
#X obj 291 201 vsl 15 60 0 300 0 0 empty empty empty 0 -9 0 10 -262144
-1 -1 1300 1;
#X msg 228 236 1 \$1;
#X obj -261 533 *~ 2;
#X obj 1172 766 samphold~;
#X obj 1172 744 noise~;
#X obj 1172 812 +~ 1;
#X obj 1172 852 snapshot~;
#X obj 1205 832 bang~;
#X obj 1172 832 /~ 2;
#X obj 1100 811 +~ 1;
#X obj 1100 851 snapshot~;
#X obj 1133 832 bang~;
#X obj 1100 831 /~ 2;
#X obj 1101 778 *~ -1;
#X obj 1100 907 line~;
#X obj 1100 943 s~ l;
#X obj 122 619 *~;
#X obj 129 597 r~ l;
#X obj 167 598 r~ r;
#X obj 160 620 *~;
#X obj 1172 904 line~;
#X obj 1172 940 s~ r;
#X obj 1224 725 phasor~ 10;
#X obj 1310 700 inv;
#X floatatom 1224 662 5 0 0 0 - - -;
#X floatatom 1310 750 5 0 0 0 - - -;
#X obj 1310 722 * 1000;
#X obj 1172 879 pack;
#X obj 1100 881 pack;
#X msg 1224 636 17;
#X obj 1224 610 r lb;
#X obj 694 823 change;
#X obj 692 844 t f f;
#X obj 692 866 mod 12;
#X obj 709 911 f;
#X obj 692 890 list-sieve;
#X obj 690 912 bng 15 250 50 0 empty empty empty 17 7 0 10 -262144
-1 -1;
#X obj 688 931 makenote 64 125 125;
#X obj 749 865 r scale;
#X obj 697 776 hsl 200 15 100 1000 0 0 empty empty empty -2 -8 0 10
-262144 -1 -1 0 1;
#X obj 694 801 ftom;
#X obj 688 950 ntof 432 12;
#X floatatom 688 993 5 0 0 0 - - -;
#X obj 688 972 line \$1 50;
#X text 1131 708 panner;
#X text 704 742 ks fb freq;
#X text 774 758 100 / 1000;
#X obj 901 45 samphold~;
#X obj 901 23 noise~;
#X obj 901 104 snapshot~;
#X obj 943 85 bang~;
#X floatatom 900 125 10 0 0 0 - - -;
#X obj 901 64 *~ 300;
#X obj 901 84 +~ 350;
#X obj 953 4 phasor~ 0.5;
#X obj 1112 74 / 2;
#X floatatom 1112 54 5 0 0 0 - - -;
#X text 1115 30 hi;
#X floatatom 1067 51 5 0 0 0 - - -;
#X text 1064 31 lo;
#X obj 1067 74 +;
#X obj 941 145 line;
#X msg 900 144 \$1 20;
#X obj 537 657 *~;
#X obj 575 658 *~;
#X obj 544 635 r~ r;
#X obj 582 636 r~ l;
#X obj 446 120 linn;
#X obj 196 55 vsl 15 60 0 5000 0 0 empty empty empty 0 -9 0 10 -262144
-1 -1 0 1;
#X obj 932 197 spigot;
#X obj 984 197 tgl 15 0 empty empty empty 17 7 0 10 -262144 -1 -1 0
1;
#X floatatom 1221 49 5 0 0 0 - - -;
#X text 1219 27 center;
#X floatatom 1298 49 5 0 0 0 - - -;
#X text 1298 29 range;
#X obj 1287 83 / 2;
#X obj 1232 122 +;
#X obj 1228 88 f;
#X obj 1184 78 bang;
#X obj 1198 159 -;
#X text 1264 657 pan freq;
#X obj -35 68 bp~;
#X floatatom -28 21 5 0 0 0 - - -;
#X floatatom 29 35 5 0 0 0 - - -;
#X msg 88 0 30;
#X obj 154 -28 r lb;
#X msg 151 3 300;
#X obj 112 117 *~ 0.2;
#X msg 196 20 0;
#X obj 481 577 vsl 15 60 0 2 0 0 empty empty empty 0 -9 0 10 -262144
-1 -1 0 1;
#X text 508 585 rev vol;
#X obj 789 437 line \$1 200;
#X obj 231 76 vsl 15 60 0 0.2 0 0 empty empty empty 0 -9 0 10 -262144
-1 -1 3200 1;
#X obj 1471 88 bip;
#X msg 1497 59 1000;
#X obj 1468 27 bng 15 250 50 0 empty empty empty 17 7 0 10 -262144
-1 -1;
#X obj 1514 29 r lb;
#X obj 1474 148 dac~;
#X msg 467 99 200;
#X obj 500 100 r lb;
#X obj 355 1089 *~ 1;
#X obj 411 1064 hsl 128 15 0 0.5 0 1 empty empty empty -2 -8 0 10 -262144
-1 -1 0 1;
#X text 819 578 K P S T;
#X floatatom -144 407 5 0 0 0 - - -;
#X msg -161 352 8;
#X obj -195 352 r lb;
#X msg 1262 256 4 9 E A;
#X text 905 258 quantized freqs;
#X text 1007 195 random seq on/off;
#X text 1140 1 random sequencer range;
#X text 917 -18 random sequencer speed;
#X text 559 167 ultra-low freq range;
#X obj 387 52 linn;
#X obj 440 -49 linn;
#X obj 136 41 linn;
#X text 494 44 50 / 600 freq range;
#X text 538 -35 weird percussive shit;
#X text 428 1042 post-saturation volume;
#X text -287 122 click here to load your own loop;
#X text 814 601 (x) 2018 Alessio Occhiodoro;
#X text 815 619 https://www.youtube.com/c/minijackaudio;
#X connect 0 0 3 1;
#X connect 1 0 209 0;
#X connect 2 0 3 0;
#X connect 3 0 11 0;
#X connect 3 0 8 0;
#X connect 3 0 112 0;
#X connect 5 0 6 0;
#X connect 5 0 10 0;
#X connect 6 0 7 0;
#X connect 7 0 8 1;
#X connect 8 0 46 0;
#X connect 8 0 144 0;
#X connect 8 0 147 0;
#X connect 11 0 12 0;
#X connect 14 0 2 1;
#X connect 15 0 26 0;
#X connect 16 0 20 0;
#X connect 17 0 20 0;
#X connect 18 0 23 0;
#X connect 19 0 18 0;
#X connect 20 0 31 0;
#X connect 20 0 52 0;
#X connect 20 1 15 0;
#X connect 21 0 22 0;
#X connect 22 0 25 0;
#X connect 23 0 22 0;
#X connect 23 0 24 0;
#X connect 24 0 25 0;
#X connect 24 1 21 0;
#X connect 25 0 20 0;
#X connect 26 0 17 0;
#X connect 26 1 25 0;
#X connect 27 0 28 0;
#X connect 28 0 17 0;
#X connect 28 1 25 0;
#X connect 29 0 16 0;
#X connect 31 0 33 0;
#X connect 32 0 31 1;
#X connect 32 0 231 0;
#X connect 33 0 2 0;
#X connect 34 0 33 1;
#X connect 35 0 33 2;
#X connect 36 0 37 0;
#X connect 38 0 36 0;
#X connect 38 0 39 0;
#X connect 40 0 39 0;
#X connect 41 0 27 0;
#X connect 42 0 43 0;
#X connect 42 0 44 0;
#X connect 43 0 34 0;
#X connect 44 0 35 0;
#X connect 45 0 9 0;
#X connect 45 1 9 1;
#X connect 46 0 106 0;
#X connect 47 0 46 1;
#X connect 48 0 46 2;
#X connect 49 0 50 0;
#X connect 49 0 107 0;
#X connect 50 0 47 0;
#X connect 52 0 54 0;
#X connect 53 0 52 1;
#X connect 54 0 60 0;
#X connect 54 0 45 0;
#X connect 54 0 45 1;
#X connect 55 0 54 1;
#X connect 56 0 54 2;
#X connect 57 0 59 0;
#X connect 57 0 58 0;
#X connect 58 0 56 0;
#X connect 59 0 55 0;
#X connect 60 0 61 0;
#X connect 61 0 63 0;
#X connect 62 0 61 1;
#X connect 64 0 54 0;
#X connect 65 0 126 0;
#X connect 65 1 129 0;
#X connect 65 2 71 0;
#X connect 66 0 67 0;
#X connect 67 0 65 0;
#X connect 68 0 67 1;
#X connect 71 0 72 0;
#X connect 72 0 0 0;
#X connect 73 0 68 0;
#X connect 74 0 73 0;
#X connect 75 0 68 0;
#X connect 76 0 240 0;
#X connect 77 0 78 0;
#X connect 78 0 79 0;
#X connect 78 1 80 1;
#X connect 79 0 81 0;
#X connect 80 0 83 0;
#X connect 81 0 82 0;
#X connect 82 0 80 0;
#X connect 83 0 105 0;
#X connect 84 0 81 1;
#X connect 85 0 88 0;
#X connect 86 0 88 0;
#X connect 87 0 88 0;
#X connect 89 0 88 0;
#X connect 90 0 88 0;
#X connect 91 0 88 0;
#X connect 92 0 86 0;
#X connect 93 0 88 0;
#X connect 94 0 88 0;
#X connect 95 0 88 0;
#X connect 96 0 88 0;
#X connect 97 0 195 0;
#X connect 98 0 241 0;
#X connect 101 0 68 0;
#X connect 102 0 104 0;
#X connect 104 0 77 0;
#X connect 105 0 219 0;
#X connect 106 0 192 0;
#X connect 106 0 191 0;
#X connect 107 0 48 0;
#X connect 112 0 116 0;
#X connect 113 0 112 1;
#X connect 114 0 112 2;
#X connect 115 0 120 0;
#X connect 115 0 121 0;
#X connect 116 0 123 0;
#X connect 117 0 116 1;
#X connect 119 0 3 0;
#X connect 120 0 114 0;
#X connect 121 0 113 0;
#X connect 123 0 228 0;
#X connect 124 0 68 0;
#X connect 125 0 14 0;
#X connect 126 0 127 0;
#X connect 127 0 13 0;
#X connect 128 0 129 0;
#X connect 128 0 126 1;
#X connect 129 0 13 0;
#X connect 130 0 30 0;
#X connect 130 0 30 1;
#X connect 131 0 133 0;
#X connect 131 0 141 0;
#X connect 132 0 131 0;
#X connect 133 0 136 0;
#X connect 134 0 155 0;
#X connect 135 0 134 0;
#X connect 136 0 134 0;
#X connect 137 0 140 0;
#X connect 138 0 156 0;
#X connect 139 0 138 0;
#X connect 140 0 138 0;
#X connect 141 0 137 0;
#X connect 142 0 143 0;
#X connect 144 0 51 0;
#X connect 145 0 144 1;
#X connect 146 0 147 1;
#X connect 147 0 51 1;
#X connect 148 0 149 0;
#X connect 150 0 131 1;
#X connect 151 0 154 0;
#X connect 152 0 150 0;
#X connect 152 0 151 0;
#X connect 153 0 155 1;
#X connect 153 0 156 1;
#X connect 154 0 153 0;
#X connect 155 0 148 0;
#X connect 156 0 142 0;
#X connect 157 0 152 0;
#X connect 158 0 157 0;
#X connect 159 0 160 0;
#X connect 160 0 161 0;
#X connect 160 1 162 1;
#X connect 161 0 163 0;
#X connect 162 0 165 0;
#X connect 163 0 164 0;
#X connect 164 0 162 0;
#X connect 165 0 169 0;
#X connect 166 0 163 1;
#X connect 167 0 168 0;
#X connect 168 0 159 0;
#X connect 169 0 171 0;
#X connect 170 0 113 0;
#X connect 170 0 55 0;
#X connect 171 0 170 0;
#X connect 175 0 180 0;
#X connect 176 0 175 0;
#X connect 177 0 179 0;
#X connect 178 0 177 0;
#X connect 179 0 190 0;
#X connect 180 0 181 0;
#X connect 181 0 177 0;
#X connect 182 0 175 1;
#X connect 183 0 180 1;
#X connect 183 0 188 1;
#X connect 184 0 183 0;
#X connect 186 0 188 0;
#X connect 188 0 181 1;
#X connect 189 0 197 0;
#X connect 190 0 189 0;
#X connect 191 0 45 0;
#X connect 192 0 45 1;
#X connect 193 0 191 1;
#X connect 194 0 192 1;
#X connect 195 0 68 0;
#X connect 196 0 242 0;
#X connect 197 0 102 0;
#X connect 197 0 104 0;
#X connect 198 0 197 1;
#X connect 199 0 205 1;
#X connect 199 0 206 0;
#X connect 201 0 203 0;
#X connect 203 0 204 1;
#X connect 203 0 206 0;
#X connect 203 0 207 1;
#X connect 204 0 184 0;
#X connect 205 0 204 0;
#X connect 205 0 207 0;
#X connect 206 0 205 0;
#X connect 207 0 186 0;
#X connect 209 0 215 0;
#X connect 210 0 209 1;
#X connect 211 0 209 2;
#X connect 212 0 211 0;
#X connect 213 0 214 0;
#X connect 213 0 212 0;
#X connect 213 0 216 0;
#X connect 214 0 242 1;
#X connect 215 0 2 0;
#X connect 216 0 196 0;
#X connect 217 0 106 1;
#X connect 219 0 124 0;
#X connect 220 0 215 1;
#X connect 221 0 225 0;
#X connect 221 0 225 1;
#X connect 222 0 221 1;
#X connect 223 0 221 0;
#X connect 224 0 222 0;
#X connect 226 0 195 1;
#X connect 227 0 226 0;
#X connect 228 0 118 0;
#X connect 229 0 228 1;
#X connect 232 0 32 0;
#X connect 233 0 232 0;
#X connect 234 0 88 0;
#X connect 240 0 68 0;
#X connect 241 0 68 0;
#X connect 242 0 210 0;
